<?xml version="1.0" encoding="UTF-8" standalone="no"?><svg width="1144" height="863" xmlns="http://www.w3.org/2000/svg" xmlns:serif="http://www.serif.com/" fill-rule="evenodd" clip-rule="evenodd" stroke-linejoin="round" stroke-miterlimit="1.414"><ellipse cx="1023.75" cy="834.07" rx="100.11" ry="24.73" fill="#00c6dc" fill-opacity=".1"/><ellipse cx="140.04" cy="838.19" rx="100.11" ry="24.73" fill="#00c6dc" fill-opacity=".1"/><path d="M591.97 137.46c-71.4 11.91-142.91 5.5-211.75-3.38-68.84-8.88-137.52-20.22-209.07-18-46 1.44-97.17 10.48-129 38.22-30.62 26.69-35 63.18-34.71 96.18.22 24.82 2.55 50.53 19.36 70.49 11.67 13.85 29.51 23.91 43 36.72 47 44.58 33.67 113.64 3.91 172.12-14 27.44-31.11 54.37-40.5 82.5-9.39 28.13-10.32 58.43 7.36 81.72 17.54 23.09 51.09 36.39 86 43.52 70.89 14.47 149.57 7 225.67-3.39 168.44-23.11 335-60.49 501.08-97.8 61.47-13.8 123.21-27.68 182.35-48 32.84-11.26 66.25-25.43 87.28-47.84 26.69-28.45 26.93-67.72.56-91.54-44.24-40-143.21-32.48-177.6-78-18.94-25-11.23-58.62 3.24-88.17 31-63.4 91.75-125.65 83-189.36-6-43.76-48.38-80.4-104.68-90.53-59-10.61-134.41 7.11-167.78 50.62-34.36 44.92-104.68 73.42-167.72 83.92z" fill="#00c6dc" fill-opacity=".1" fill-rule="nonzero"/><path d="M1026.62 162.6c0-6.893-5.597-12.49-12.49-12.49H88.78c-6.893 0-12.49 5.597-12.49 12.49v513.35c0 6.893 5.597 12.49 12.49 12.49h925.35c6.893 0 12.49-5.597 12.49-12.49V162.6z" fill="url(#_Linear1)"/><path d="M1025.22 170.17c0-6.893-5.597-12.49-12.49-12.49H90.29c-6.893 0-12.49 5.597-12.49 12.49v503.99c0 6.893 5.597 12.49 12.49 12.49h922.44c6.893 0 12.49-5.597 12.49-12.49V170.17z" fill="#fff"/><path d="M1025.22 170.17c0-6.893-5.597-12.49-12.49-12.49H90.29c-6.893 0-12.49 5.597-12.49 12.49v503.99c0 6.893 5.597 12.49 12.49 12.49h922.44c6.893 0 12.49-5.597 12.49-12.49V170.17z" fill="#fff"/><path d="M1025.22 170.17c0-6.893-5.597-12.49-12.49-12.49H90.29c-6.893 0-12.49 5.597-12.49 12.49v503.99c0 6.893 5.597 12.49 12.49 12.49h922.44c6.893 0 12.49-5.597 12.49-12.49V170.17z" fill="#5a5773" fill-opacity=".04"/><path d="M1020.41 151.61H82.57c-2.639 0-4.81 2.171-4.81 4.81v20.34h947.42v-20.3-.04c0-2.624-2.146-4.788-4.77-4.81z" fill="#0d2c56" fill-rule="nonzero"/><g serif:id="83eb5f8b-b68b-4721-b047-6100bc74156f" fill="#fff"><circle cx="96.72" cy="164.18" r="6.5"/><circle cx="114.22" cy="164.18" r="6.5"/><circle cx="131.72" cy="164.18" r="6.5"/></g><path d="M931.22 304.05c0-5.624-4.566-10.19-10.19-10.19H151.41c-5.624 0-10.19 4.566-10.19 10.19v372.4c0 5.624 4.566 10.19 10.19 10.19h769.62c5.624 0 10.19-4.566 10.19-10.19v-372.4z" fill="#fff"/><path d="M334.96 207.31c0-2.13-1.73-3.86-3.86-3.86H111.58c-2.13 0-3.86 1.73-3.86 3.86v16.13c0 2.13 1.73 3.86 3.86 3.86H331.1c2.13 0 3.86-1.73 3.86-3.86v-16.13z" fill="gray" fill-opacity=".2"/><path d="M763.46 343.31c0-2.13-1.73-3.86-3.86-3.86H540.08c-2.13 0-3.86 1.73-3.86 3.86v16.13c0 2.13 1.73 3.86 3.86 3.86H759.6c2.13 0 3.86-1.73 3.86-3.86v-16.13zM891.05 410.09c0-2.13-1.73-3.86-3.86-3.86H540.08c-2.13 0-3.86 1.73-3.86 3.86v16.13c0 2.13 1.73 3.86 3.86 3.86h347.11c2.13 0 3.86-1.73 3.86-3.86v-16.13zM891.05 449.09c0-2.13-1.73-3.86-3.86-3.86H540.08c-2.13 0-3.86 1.73-3.86 3.86v16.13c0 2.13 1.73 3.86 3.86 3.86h347.11c2.13 0 3.86-1.73 3.86-3.86v-16.13zM891.05 488.09c0-2.13-1.73-3.86-3.86-3.86H540.08c-2.13 0-3.86 1.73-3.86 3.86v16.13c0 2.13 1.73 3.86 3.86 3.86h347.11c2.13 0 3.86-1.73 3.86-3.86v-16.13zM891.05 527.09c0-2.13-1.73-3.86-3.86-3.86H540.08c-2.13 0-3.86 1.73-3.86 3.86v16.13c0 2.13 1.73 3.86 3.86 3.86h347.11c2.13 0 3.86-1.73 3.86-3.86v-16.13zM891.05 570.09c0-2.13-1.73-3.86-3.86-3.86H187.91c-2.13 0-3.86 1.73-3.86 3.86v16.13c0 2.13 1.73 3.86 3.86 3.86h699.28c2.13 0 3.86-1.73 3.86-3.86v-16.13zM891.05 609.09c0-2.13-1.73-3.86-3.86-3.86H187.91c-2.13 0-3.86 1.73-3.86 3.86v16.13c0 2.13 1.73 3.86 3.86 3.86h699.28c2.13 0 3.86-1.73 3.86-3.86v-16.13zM891.05 648.09c0-2.13-1.73-3.86-3.86-3.86H187.91c-2.13 0-3.86 1.73-3.86 3.86v16.13c0 2.13 1.73 3.86 3.86 3.86h699.28c2.13 0 3.86-1.73 3.86-3.86v-16.13zM486.05 334.72c0-4.691-3.809-8.5-8.5-8.5h-285c-4.691 0-8.5 3.809-8.5 8.5v204.54c0 4.691 3.809 8.5 8.5 8.5h285c4.691 0 8.5-3.809 8.5-8.5V334.72z" fill="#00c6dc" fill-opacity=".2"/><path d="M1125.05 572.61c.38-1-2.44-6.72-2.44-7 0-.28-2.91-3.45-2.91-5.22 0-1.77-3.85-5.6-3.85-5.6s-5.17-2.14-5.73-6.81c-.56-4.67-6.19-4.75-6.2-4.75-.01 0 0-.42 0-1.07a14.719 14.719 0 0 0-.69-5.45 5.488 5.488 0 0 0-3.19-2.71c-1.379-.446-.57-3.64-1.69-4.76a5.355 5.355 0 0 1-1.32-5c.57-1.76-.75-6.24-3.47-6.9-2.72-.66-5.83-1.68-5.83-1.68l-.75.13-.37-.13c-.661.126-1.329.21-2 .25a2.47 2.47 0 0 1-1.59-.52c-.94-1-8.55-3-10-3-1.45 0-5.45-1.87-5.45-1.87s-2.82-2.14-4-3.08c-1.18-.94-3.23-4.35-3.54-4.87v-.07a17.228 17.228 0 0 1-.85-2.45 22.076 22.076 0 0 0 3.49-4.81c.1-.18.19-.36.28-.55a2.1 2.1 0 0 0 .61-.09l.25-.1a4.057 4.057 0 0 0 2-2.38c.071-.203.131-.41.18-.62v-.21l.09-.42a1.922 1.922 0 0 1 0-.24l.06-.42v-.24c0-.18 0-.35.07-.53.061-.671.157-1.339.29-2 .56-2.53 2.09-4.67 3.16-7 .15-.33.3-.67.43-1 .13-.33.26-.75.37-1.13l.09-.35c.07-.28.13-.56.19-.84.06-.28 0-.25.07-.38.06-.38.11-.77.15-1.17a14.459 14.459 0 0 0-1-6.55c-.7-1.75-1.75-3.33-2.46-5.08-1.08-2.65-1.37-5.66-2.68-8.19-2.197-4.222-7.18-6.249-11.7-4.76-2 .76-3.82 2.23-5.89 2.89-2.78.89-5.74.22-8.62-.17-2.88-.39-6-.44-8.36 1.44-2.66 2.16-3.38 6.22-5.88 8.59-1 1-2.35 1.63-3.46 2.55a5.652 5.652 0 0 0-1.74 2.38l-.06.19a1.784 1.784 0 0 0-.06.25 2.414 2.414 0 0 0-.05.28 1.205 1.205 0 0 0 0 .19 2.09 2.09 0 0 0 0 .5c.014.158.037.315.07.47v.13c0 .13.07.26.12.39.05.13 0 .05 0 .07 0 .02.11.29.17.43l.09.21c0 .06 0 .12.08.17.357.694.649 1.421.87 2.17a2.41 2.41 0 0 1-.09 1.43c-.237.52-.577.986-1 1.37a19.36 19.36 0 0 0-4.24 6.79 12.48 12.48 0 0 0-.3.87h.13c.269.077.543.134.82.17.157.009.313.009.47 0a7.323 7.323 0 0 0 1.92-.14l.48-.12c.653-.17 1.289-.401 1.9-.69v.89a22.208 22.208 0 0 0 12.33 19.84c0 .2.05.4.08.6l.06.51-.25-.24s-1.69-.84-3.29 1.58a10.622 10.622 0 0 1-4.6 3.55c-1.833.733-17.1 2.7-17.76 4.94l-8 .47s-2.82.37-3.1 6.25c-.28 5.88-1.78 6.43-1.78 6.43s-3.29 5.79-3 8.77a4.896 4.896 0 0 1-2.54 4.48l-.37 5.32s-3.1-.47-4 3.17a12.652 12.652 0 0 1-2.34 5.31c-1.181 1.565-5.17 4.3-5.45 7.93l-3.2 2s-7.42-1.68-9.11-4.66c0 0-.2-.2-.52-.49v-.07c-1.11-1-3.46-3.24-3.1-2.73.221.468.274.998.15 1.5l-.55-.61-1.48-1.64s-12-11.24-19-12.13c-.09-.18-.55-2-1.75-.85a9.803 9.803 0 0 0-.07 14.37l11.24 10.49.29.21 2.41 3.1c-.41 1-.75 1.92-1 2.78v.09l-.18.54a1.265 1.265 0 0 0-.05.18c-.06.18-.11.35-.16.52l-.09.3v.18c-.27.94-.44 1.66-.52 2.06l-.63-.2.61.27v.29l.58.25c3.29 1.43 19.71 8.64 20.55 9.73.84 1.09 7.14 4.76 12.78 1.77 5.64-2.99 6.85-7.55 6.85-7.55s5.45-7.56 5.64-8.68c.19-1.12 4.41-2.42 4.41-2.42s.38 12.49-1.78 17.07-6.2 24.81-6.2 24.81c.265-.037.535-.037.8 0l-.24 1.17c.33-.062.67-.062 1 0-.3 2.3-2 13-2 13s-.56 4.85-1.5 6.53c-.94 1.68-1 10.45-1 10.45l-1.51 6.34s.2.44.57 1.09a16.224 16.224 0 0 0 4.32 5.59 11.07 11.07 0 0 1-.76 2.9 10.192 10.192 0 0 0-.75 4.48c.09 1.531-1.59 7.18-1.41 9.23.18 2.05-1 7.09-1 7.09l-1.69 16.23s-1.12 14.08-.56 17.91c.269 3.004.141 6.03-.38 9-.521 2.97 1.13 11.1.85 12.31-.28 1.21-1.69 6.44-.85 9.33.84 2.89.38 10.82.38 10.82s.56 10.45 1.22 13.81a23.638 23.638 0 0 1-.19 7.65c-.478 2.523-.66 7.18-.94 7.18-.28 0-2.72 4.94 2.25 9.79 4.97 4.85 1.89 4.1 1.89 4.1s-4-2-3.48 2.06c.44 3.81 1.06 2.82 1.12 2.71l-.94 3.07.66.09-.54.65a14.097 14.097 0 0 1-1.9 2 4.073 4.073 0 0 0-1.22 2.7c-.053 1.021-6.95 7.56-13.43 11.38-3.41 2-6.35 3.71-7.63 5.13-1.16 1.26-1 2.28 1.43 3.08 5.07 1.68 14 2.52 20.38.37a23.84 23.84 0 0 0 10-6.43c2.737-2.953 4-2.06 8-1.31s11.84-4.38 11.84-4.38l-.15-1.32-.41-3.82a3.001 3.001 0 0 1-.66-2.32 11.989 11.989 0 0 0-.33-3.36c-.07-.37-.14-.74-.21-1.08l.72-.14s-.93-4.75.76-5.69c1.69-.94 1.21-13.15 1.21-13.15s-2.15-2.8-3.28-3.26c-1.13-.46-.1-6.26.1-7 .2-.74 1.69-15.21 1.69-15.21s-.57-4.56.18-6.52-.94-9.52-.94-9.52a1.744 1.744 0 0 1 .47-2.05c1-1.12.66-11.1.66-11.1s-.09-5-.09-6.35c0-1.35 1.12-6.06 2.16-7.64s.37-6.53.37-6.53l.06-.37c0-.14 0-.32.08-.53l.08-.5a72.649 72.649 0 0 1 1.84-8.1c1.22-3.91 2.63-10.81 2.63-10.81l8.73-22.78.1-.27s4 7.46 4 14.37c0 0 1 8.3.76 10.54-.24 2.24.65 12.77.65 12.77s1.22 15.11 1.22 15.76c0 .65 1.51 12.31 2.45 14.09.94 1.78-.94 7.18-1.51 7.74-.57.56.19 14.27.19 14.27s-1.41 10.82-1.69 13.06-1.41 10.82-.47 14.18c.94 3.36.56 3.82.56 3.82s3.39 3.46 1.41 3.74a5.184 5.184 0 0 0-4.065 5.051c0 .596.103 1.188.305 1.749a89.59 89.59 0 0 0 4.14 10l1.56-.33v1.11l.11 5.56s.66 5.31.28 6.53c-.27.88-.65 5.06-.83 7.25-.07.8-.11 1.33-.11 1.33s0 4.94 10.43 3.45c10.43-1.49 12.3-5.6 12.3-5.6l.08-.51c.15-.94.49-2.94.77-4.06.37-1.49-3-8.21-3-8.21s-.56-4.57-1.5-5.59a4.992 4.992 0 0 1-.76-2c-.08-.38-.16-.77-.22-1.15.235.028.469.068.7.12.231.052-.57-3.26 1.6-4.29 2.17-1.03 1.59-3.17 1.31-4.1-.28-.93.84-6.16.84-6.16a3.003 3.003 0 0 1 .75-3c1.32-1.31 2.35-10.45 2.35-10.45l.19-35.26s.66-6.25-.09-8.77c-.75-2.52-1.5-7.37-.47-8.68 1.03-1.31.09-7.36.09-7.36s0-12.78 1.41-16c1.41-3.22.94-23.23.94-23.23l.37-13.15s3.07-2.9 2.35-18c3.27-.21 7-.33 7.52.13 1 .84 7.7 5.13 11.65 2.42a52.097 52.097 0 0 0 4.69-3.63l-1.66-28 1.66 2.59c0-3.91 11.09-16.6 11.09-16.6s10.33-13.34 12.58-14.92 6.67-10 6.67-10a40.509 40.509 0 0 1 2.26-4.66c1.04-1.59-2.34-6.07-1.97-7.09zm-24.23 9.79c-2.82.28-8.74 6.72-8.83 8.12a5.756 5.756 0 0 1-1.25 2.5c0-.56-.09-1.13-.14-1.71-.66-8.25-1.38-18.29-1-19.26.56-1.68.37-9.24.37-9.24l.11-.15c1.89 5.86 7.77 12.76 7.77 12.76s1 3 2.26 3.07c1.26.07.71 3.91.71 3.91z" fill="url(#_Linear2)" fill-rule="nonzero"/><path d="M950.22 580.27s3.43-18 14.44-18l8.06 16.57-5.37 3.7s-11.67.32-17.13-2.27z" fill="#65617d" fill-rule="nonzero"/><path d="M972.72 578.79l-5.37 3.7s-8.21.26-14.08-1.18a16.272 16.272 0 0 1-3.05-1l.06-.29v-.06a39.94 39.94 0 0 1 2.08-6.6c.34-.81.72-1.64 1.14-2.47 1.61-3.1 3.88-6.15 7-7.65a9.479 9.479 0 0 1 3.67-1h.49l.18.37 2.72 5.6 5.16 10.58z" fill-opacity=".1" fill-rule="nonzero"/><path d="M1064.18 653.4s11.57-1.11 12.59-.27c1.02.84 7.59 5.09 11.47 2.4 3.88-2.69 1.3-12 1.3-12.4 0-.4-.37-13.61-.37-13.61l-6.94-9.35-8.7-16.38-17.78-1.76.46 26-.09 13.33 8.06 12.04z" fill="#404040" fill-rule="nonzero"/><path d="M1064.18 653.4s11.57-1.11 12.59-.27c1.02.84 7.59 5.09 11.47 2.4 3.88-2.69 1.3-12 1.3-12.4 0-.4-.37-13.61-.37-13.61l-6.94-9.35-8.7-16.38-17.78-1.76.46 26-.09 13.33 8.06 12.04z" fill="#595959" fill-opacity=".1" fill-rule="nonzero"/><path d="M962.35 561.76s-.93 11.29-8 11.48c0 0-2-1.2-4.68-3.21-6.18-4.63-16-13.52-13.28-21.79 3.89-11.85 22.77 10 22.77 10l1.46 1.63 1.73 1.89z" fill="#fbbebe" fill-rule="nonzero"/><path d="M962.35 561.76s-.93 11.29-8 11.48c0 0-2-1.2-4.68-3.21l-.6-.77a9.206 9.206 0 0 0 3.86 1 5.22 5.22 0 0 0 5-3.17 40.016 40.016 0 0 0 2-4.49c.331-.897.568-1.825.71-2.77l1.71 1.93z" fill-opacity=".1" fill-rule="nonzero"/><path d="M959.29 582.22l-1.58-2-5.33-6.86-2.71-3.51a9.129 9.129 0 0 0 3.85 1 5.19 5.19 0 0 0 5-3.17 39.087 39.087 0 0 0 1.95-4.48c.88-2.5.86-3.78.55-4.22-.31-.44 2 1.68 3.06 2.72l.51.48.19.38 2.79 5.4c.006.077.006.153 0 .23.2 1.7 1.1 12.49-8.28 14.03z" fill="#e7effd" fill-rule="nonzero"/><path d="M1014.75 820.46s-7.78 5.1-11.67 4.35a14.003 14.003 0 0 0-7.87 1.3 23.363 23.363 0 0 1-9.81 6.39c-6.3 2.13-15.09 1.29-20.09-.37-2.36-.79-2.55-1.81-1.41-3.06s4.16-3.09 7.52-5.09c6.39-3.8 13.24-11.29 13.24-11.29a4.002 4.002 0 0 1 1.2-2.69 13.777 13.777 0 0 0 1.87-2c1-1.17 1.93-2.4 1.93-2.4l22.91.86s.39 1.65.7 3.34c.261 1.09.368 2.211.32 3.33a3.003 3.003 0 0 0 .65 2.31l.41 3.78.1 1.24zM1062.57 826.88c-.27 1.11-.61 3.09-.76 4 0 .31-.07.51-.07.51s-1.85 4.07-12.13 5.55c-10.28 1.48-10.27-3.42-10.27-3.42l.1-1.33c.18-2.16.55-6.31.82-7.19.37-1.2-.27-6.48-.27-6.48l-.11-5.52-.08-3.83 17-1.76c.109 1.273.293 2.538.55 3.79a4.87 4.87 0 0 0 .75 2c.92 1 1.48 5.55 1.48 5.55s3.39 6.65 2.99 8.13z" fill="gray" fill-rule="nonzero"/><path d="M1012.57 806.46s.39 1.65.7 3.34c-2.47.45-13.27 2.32-16 1-3.06-1.48-9.63-2.31-9.63-2.31l.11-.38c1-1.17 1.93-2.4 1.93-2.4l22.89.75zM1057.41 811.23c-4.31-.73-13.78 1-17.5 1.8l-.08-3.83 17-1.76c.119 1.274.313 2.539.58 3.79z" fill-opacity=".1" fill-rule="nonzero"/><path d="M1067.04 670.9l-.36 13s.46 19.9-.93 23c-1.39 3.1-1.39 15.83-1.39 15.83s.93 6-.09 7.31c-1.02 1.31-.28 6.11.46 8.61.74 2.5.09 8.7.09 8.7l-.18 35s-1 9.07-2.32 10.37a3.055 3.055 0 0 0-.74 3c.315 1.059-1.11 5.18-.83 6.11.28.93.83 3.05-1.29 4.07-2.12 1.02-1.58 4.26-1.58 4.26-5.09-1.21-19.53 2-19.53 2a88.561 88.561 0 0 1-4.08-9.91 5.13 5.13 0 0 1-.308-1.752 5.144 5.144 0 0 1 4.018-5.008c1.94-.27-1.39-3.7-1.39-3.7s.37-.46-.56-3.8.19-11.85.47-14.07c.28-2.22 1.66-13 1.66-13s-.74-13.61-.18-14.16c.56-.55 2.4-5.93 1.48-7.68-.92-1.75-2.41-13.33-2.41-14 0-.67-1.2-15.65-1.2-15.65s-1.11-10.46-.83-12.68c.28-2.22-.75-10.46-.75-10.46 0-6.85-4-14.26-4-14.26l-.1.27-8.6 22.76s-1.39 6.85-2.59 10.74a70.574 70.574 0 0 0-1.81 8l-.08.5-.08.52-.06.37s.64 4.9-.38 6.48a23.11 23.11 0 0 0-2.12 7.59c0 1.3.09 6.3.09 6.3s.37 9.9-.65 11a1.734 1.734 0 0 0-.46 2c.301.694 1.66 7.5.92 9.44-.74 1.94-.18 6.48-.18 6.48s-1.48 14.35-1.67 15.09c-.19.74-1.2 6.48-.09 6.94 1.11.46 3.24 3.24 3.24 3.24s.46 12.13-1.2 13.05c-1.66.92-.75 5.65-.75 5.65s-13.42 2.59-16.47 1.11c-3.05-1.48-9.63-2.31-9.63-2.31l.92-3c-.06.11-.67 1.1-1.1-2.69-.47-4 3.42-2 3.42-2s3.06.74-1.85-4.07c-4.91-4.81-2.5-9.72-2.22-9.72.28 0 .92-7.13.92-7.13.473-2.503.537-5.066.19-7.59-.65-3.33-1.2-13.7-1.2-13.7s.46-7.87-.38-10.74c-.84-2.87.56-8 .84-9.26.28-1.26-.84-12.22-.84-12.22.522-2.97.65-5.996.38-9-.56-3.8.55-17.78.55-17.78l1.67-16.1s1.2-5 1-7c-.2-2 1.39-9.16 1.39-9.16-.09-1.52.163-3.041.74-4.45.93-1.85 1.3-8 1.3-8l8.89-20.36 4.35-18 58.78-.56s.21 1.56.57 4.39c.36 2.83.86 7 1.42 12.19.51 4.7 1.07 10.23 1.62 16.38 1.79 19.7-1.92 23.22-1.92 23.22z" fill="#0d2c56" fill-rule="nonzero"/><path d="M1061.57 508.81l-13.69 14.65s-17.58-7-15.73-9.45c.71-.93.6-3.87.19-7.11-.65-5.13-2-11-2-11s30.73-5 28.13.18a8.52 8.52 0 0 0-.19 6.15 23.29 23.29 0 0 0 3.29 6.58z" fill="#fbbebe" fill-rule="nonzero"/><path d="M1058.43 496.03c-.94 1.9-1.39 2.08-.8 4.12-4 4.31-9.13 9-15.49 9a21.926 21.926 0 0 1-9.8-2.3c-.65-5.13-2-11-2-11s30.69-5 28.09.18z" fill-opacity=".1" fill-rule="nonzero"/><path d="M1064.18 486.59c0 12.088-9.947 22.035-22.035 22.035-12.088 0-22.035-9.947-22.035-22.035v-.32c.087-12.025 10.005-21.871 22.03-21.871 12.086 0 22.031 9.945 22.031 22.031l-.001.16h.01z" fill="#fbbebe" fill-rule="nonzero"/><path d="M1067.37 631.94c-2.92 0-12.64.1-23.5.28h-.13l-3.59.06h-.11c-12.88.2-25.57-2.31-30.67-1.84-10.83 1 3.89-10 3.89-10a90.81 90.81 0 0 0 24.67 2.49l3.12-.16c9.84-.56 19.73-1.48 24.9-3 .36 2.84.86 7 1.42 12.17z" fill-opacity=".1" fill-rule="nonzero"/><path d="M1067.37 631.38c-2.92 0-12.64.11-23.5.28h-.13l-3.59.06h-.11c-12.88.21-25.57-2.31-30.67-1.83-10.83 1 3.89-10 3.89-10a90.37 90.37 0 0 0 24.67 2.49l3.12-.16c9.84-.55 19.73-1.48 24.9-3 .36 2.83.86 6.99 1.42 12.16z" fill="gray" fill-rule="nonzero"/><path d="M1036.22 514.92l-17 8-13.15 101.64s7.78-3.52 12.22-1.3c4.44 2.22 18.14.19 18.14.19s10-.56 11.48.56c1.48 1.12 18.89-4.63 18.89-4.63s3.15-7 .74-8.15c-2.41-1.15.74-12 .74-12l-1.48-73.32-3-9.44-8-4.82-8.14 6.48-3.89.56-7.55-3.77z" fill-opacity=".1" fill-rule="nonzero"/><path d="M1036.22 513.81l-17 8-13.18 101.65s7.78-3.52 12.22-1.3c4.44 2.22 18.14.19 18.14.19s10-.56 11.48.55c1.48 1.11 18.89-4.62 18.89-4.62s3.15-7 .74-8.15c-2.41-1.15.74-12 .74-12l-1.48-73.32-3-9.44-8-4.82-8.14 6.48-3.89.56-7.52-3.78z" fill="#e7effd" fill-rule="nonzero"/><path d="M1035.94 518.53s4.91 5.83 4.82 7c-.09 1.17-.28 4.08-.28 4.08l-3.7 7.49s-2 9.35-2 11.3c0 1.95-3.24 18.79-3.24 18.79l-3.97 25.95-4.91 34 5 8.61 5.93-5 7.87-60.54 1.66-11.94s1.76-21.48 1.76-23.7a75.627 75.627 0 0 0-1-8.05c-.477-2.663 1.21-5.56 6.21-6.85s-.38-.28-.38-.28l-2.86-2.31-2.5 1s-6.93-2.14-8.41.45z" fill-opacity=".1" fill-rule="nonzero"/><path d="M1035.39 517.97s4.9 5.83 4.81 7c-.09 1.17-.28 4.07-.28 4.07l-3.7 7.5s-2 9.35-2 11.29c0 1.94-3.24 18.79-3.24 18.79l-3.88 25.92-4.91 34 5 8.61 5.92-5 7.87-60.54 1.67-11.94s1.76-21.48 1.76-23.7a75.812 75.812 0 0 0-1-8.06c-.477-2.667 1.2-5.55 6.2-6.85 5-1.3-.37-.27-.37-.27l-2.87-2.32-2.5 1s-7-2.09-8.48.5z" fill="#00c6dc" fill-rule="nonzero"/><path d="M1032.15 508.25s-.74.56-.93 4.26c-.19 3.7-2.78 12-2.78 12s9.63-6.66 14.44-5.92l-10.73-10.34z" fill-opacity=".1" fill-rule="nonzero"/><path d="M1032.15 507.14s-.74.56-.93 4.26c-.19 3.7-2.78 12-2.78 12s9.63-6.66 14.44-5.92l-10.73-10.34z" fill="#e7effd" fill-rule="nonzero"/><path d="M1058.44 505.29l-15.18 13.33s12.77 7.59 14.44 9.44c1.67 1.85 3.33-18.14 3.33-18.14l-2.59-4.63z" fill-opacity=".1" fill-rule="nonzero"/><path d="M1058.99 504.18l-15.18 13.33s12.78 7.59 14.44 9.44c1.66 1.85 3.33-18.14 3.33-18.14l-2.59-4.63z" fill="#e7effd" fill-rule="nonzero"/><path d="M1032.7 508.25s-1.66-.83-3.24 1.58a10.453 10.453 0 0 1-4.53 3.51c-1.807.725-16.85 2.69-17.5 4.91l-7.87.46s-2.78.37-3 6.21c-.22 5.84-1.76 6.38-1.76 6.38s-3.24 5.74-3 8.7a4.876 4.876 0 0 1-2.5 4.45l11.57 30.08s.37 12.41-1.76 16.94C996.98 596 993 616.1 993 616.1s1.67-.37 1.57.74c-.1 1.11-2 13.24-2 13.24s-.56 4.81-1.48 6.48c-.92 1.67-1 10.36-1 10.36l-1.48 6.3s3.51 7.87 8.88 6.76c5.37-1.11 15.08-22.13 15.08-22.13l6.2-22.68 4.82-22.4 1.39-15.18 2.22-33.61 3.24-22.21s3.56-11.94 2.26-13.52z" fill-opacity=".1" fill-rule="nonzero"/><path d="M1032.15 507.14s-1.67-.83-3.24 1.58a10.513 10.513 0 0 1-4.54 3.51c-1.809.726-16.85 2.69-17.5 4.91l-7.86.46s-2.78.37-3.06 6.2c-.28 5.83-1.76 6.39-1.76 6.39s-3.24 5.74-3 8.7a4.856 4.856 0 0 1-2.5 4.45l11.61 30.12s.37 12.41-1.76 16.94c-2.13 4.53-6.11 24.63-6.11 24.63s1.67-.37 1.58.74c-.09 1.11-2 13.23-2 13.23s-.55 4.82-1.48 6.48c-.93 1.66-1 10.37-1 10.37l-1.48 6.3s3.52 7.87 8.89 6.75c5.37-1.12 15.09-22.12 15.09-22.12l6.2-22.68 4.81-22.4 1.33-15.24 2.22-33.61 3.24-22.21s3.61-11.92 2.32-13.5z" fill="#999" fill-rule="nonzero"/><path d="M972.72 578.79l-5.37 3.7s-8.21.26-14.08-1.18l-3-1.33-.6-.26.62.2c2.384.849 4.973.94 7.41.26 7.6-2.56 6.76-15.1 6.46-17.94 0-.29-.05-.47-.06-.54v.07c.107.17.224.334.35.49l.34.36 2.78 5.34c.006.077.006.153 0 .23l5.15 10.6z" fill-opacity=".1" fill-rule="nonzero"/><path d="M991.32 542.6l-2.59.74-.37 5.27s-3-.46-3.89 3.15a12.716 12.716 0 0 1-2.31 5.28c-1.164 1.56-5.09 4.26-5.37 7.87l-3.15 1.94s-7.31-1.67-9-4.63c0 0 3.34 23.88-14.44 18 0 0 19.9 8.7 20.83 9.91.93 1.21 7 4.72 12.59 1.76s6.76-7.5 6.76-7.5 5.37-7.5 5.55-8.61c.18-1.11 4.35-2.41 4.35-2.41l8-19.25-16.96-11.52z" fill="#999" fill-rule="nonzero"/><path d="M1056.31 516.4l2.68-12.22s1.21 4 2.41 4.91l4 3s4 1.85 5.37 1.85 8.89 2 9.81 3c.92 1 4.63.28 4.63.28s3.05 1 5.74 1.67c2.69.67 4 5.09 3.42 6.85a5.356 5.356 0 0 0 1.3 5c1.11 1.11 1.67 4.72 1.67 4.72a5.422 5.422 0 0 1 3.14 2.68c.93 2 .65 6.48.65 6.48l-13.79 19.44s.18 7.5-.37 9.17 1.94 30 1.94 30l2.87 48.69a50.603 50.603 0 0 1-4.63 3.61c-.83.37-1.66-17.22-1.66-17.86 0-.64-21.39-32-21.39-32s-2.87-4.63-2.87-5.65c0-1.02-2.68-10.37-2.68-10.37l-4.07-18 1.83-55.25z" fill-opacity=".1" fill-rule="nonzero"/><path d="M1102.26 543.57v1.06l-13.78 19.42s.19 7.5-.37 9.17c-.32 1 .38 10.93 1 19.11.47 5.9.9 10.88.9 10.88l1.22 20.65 1.65 28a50.603 50.603 0 0 1-4.63 3.61c-.83.37-1.66-17.22-1.66-17.87 0-.65-21.39-32-21.39-32s-2.87-4.63-2.87-5.65c0-1.02-2.68-10.37-2.68-10.37l-4.07-18 1.85-55.17 1.57-12.22s2.32 4 3.52 4.9l4 3.06s4 1.85 5.37 1.85 8.89 2 9.81 3c.92 1 4.63.28 4.63.28s3.06 1 5.74 1.67c2.68.67 4 5.09 3.42 6.85a5.364 5.364 0 0 0 1.3 5c1.11 1.11 1.67 4.72 1.67 4.72a5.422 5.422 0 0 1 3.14 2.68 15 15 0 0 1 .66 5.37z" fill="#999" fill-rule="nonzero"/><path d="M989.1 790.22c.46 0 19.9.74 19.53 3.89-.37 3.15-19.53-3.89-19.53-3.89zM993.45 795.46s13.05 2.13 9.63 4.07c-3.42 1.94-9.63-4.07-9.63-4.07zM1041.96 788.19s21.66 1.85 18.42 4.25c-3.24 2.4-10.92 2.78-11.29 2.87-.37.09-7.13-7.12-7.13-7.12zM1039.37 797.72s12 2 12.4 4.35c.4 2.35-12.4-4.35-12.4-4.35zM1046.03 741.99s11 2.59 11.67 4.35l-11.67-4.35zM1003.57 749.95s-5.74 1.67-.18 5c5.56 3.33.18-5 .18-5zM1029 660.99c.65 0 10.74-3.33 14.26-1.85 2.516.94 5.175 1.44 7.86 1.48l-22.12.37zM1030.3 671.54l-.1.92-8.63 22.6s-1.39 6.85-2.59 10.74a70.574 70.574 0 0 0-1.81 8l7.64-47.37 5.49 5.11z" fill-opacity=".1" fill-rule="nonzero"/><path d="M1043.74 631.66l-3.59.06h-.11l-2.11-9.33 3.12-.17 2.69 9.44z" fill="#333" fill-rule="nonzero"/><path d="M1087.41 620.36l-2.3 1.9-7.7 6.33s-20.82 11.11-26.56.56c-5.06-9.3 18.55-15.94 24.24-17.39l1.21-.29 11.11 8.89z" fill="#fbbebe" fill-rule="nonzero"/><path d="M998.45 529.36s4.07 1.85 5 4.44c.93 2.59-5-4.44-5-4.44zM985.86 557.13s-5.92 7.22-3.52 10c2.4 2.78 3.52-10 3.52-10zM1091.76 533.46s-5.55.56-5.74 5.37l5.74-5.37zM1040.29 609.34c.56-.56 13.33-19.44 16.3-17.77l-16.3 17.77zM1064.18 486.59a22.004 22.004 0 0 1-2.61 10.4h-.16c-1.4-.3-2.13-1.92-3.19-2.94a4.339 4.339 0 0 0-5-.7 5.088 5.088 0 0 0-2.46 4.75c-.7-3-.48-6.12-1.17-9.09-.69-2.97-2.76-6-5.6-6-1.22 0-2.65.45-3.53-.47-.53-.55-.64-1.42-1-2.09-2-3.29-8.2-1.63-10.72.06-2.52 1.69-5.45 4.37-8.58 5.81.087-12.025 10.005-21.871 22.03-21.871 12.086 0 22.031 9.945 22.031 22.031l-.001.16-.04-.05z" fill-opacity=".1" fill-rule="nonzero"/><path d="M1039.42 479.84c.4.67.51 1.54 1 2.1.88.91 2.31.44 3.53.46 2.84.05 4.92 3.06 5.6 6 .68 2.94.47 6.12 1.18 9.08a5.007 5.007 0 0 1 2.45-4.74 4.36 4.36 0 0 1 5 .69c1.06 1 1.79 2.65 3.19 2.94 1.4.29 2.74-1.05 3.24-2.52a38.5 38.5 0 0 0 .8-4.61c.63-2.88 2.52-5.25 3.56-8a14.518 14.518 0 0 0-.09-10.34c-.7-1.74-1.73-3.3-2.43-5-1.07-2.63-1.35-5.61-2.65-8.12-2.146-4.182-7.063-6.203-11.53-4.74-2 .76-3.76 2.22-5.8 2.88-2.74.88-5.66.22-8.49-.18s-6-.43-8.24 1.43c-2.62 2.15-3.34 6.18-5.8 8.53-1 1-2.32 1.62-3.41 2.53a4.703 4.703 0 0 0-1.91 3.76c.17 1.92 2 3.66 1.35 5.44a4.22 4.22 0 0 1-1 1.35 19.376 19.376 0 0 0-4.48 7.63c5 1.54 10.32-3.92 14.19-6.5 2.54-1.69 8.71-3.35 10.74-.07z" fill="#7c5c5c" fill-rule="nonzero"/><path d="M1087.41 620.36l-2.3 1.9c-2-3.39-10.38-10.15-10.38-10.15l.36-.35 1.21-.29 11.11 8.89z" fill-opacity=".1" fill-rule="nonzero"/><path d="M1089.63 616.93s-.82 2.06-1.68 3.84c-.86 1.78-1.79 3.4-1.83 2.09-.1-2.6-10.83-11.3-10.83-11.3l1.45-1.42 1.69-1.64 11.2 8.43z" fill="#e7effd" fill-rule="nonzero"/><path d="M1090 603.23l1.22 20.65c-2.88-4.47-10.77-15.93-15.84-15.56l12.31-14.16c.511-.57.983-1.175 1.41-1.81.47 5.9.9 10.88.9 10.88z" fill-opacity=".1" fill-rule="nonzero"/><path d="M1089.63 616.93s-.82 2.06-1.68 3.84c-3.23-4.42-7.66-9.65-11.21-10.63l1.69-1.64 11.2 8.43z" fill-opacity=".1" fill-rule="nonzero"/><path d="M1098.89 542.04l3.33 2.59s5.56.1 6.11 4.72c.55 4.62 5.65 6.76 5.65 6.76s3.79 3.8 3.79 5.56c0 1.76 2.87 4.9 2.87 5.18 0 .28 2.78 5.92 2.41 6.94-.37 1.02 3 5.46 1.94 7.13a42.938 42.938 0 0 0-2.22 4.63c-.647 1.586-4.35 8.33-6.57 9.9-2.22 1.57-12.4 14.82-12.4 14.82s-10.93 12.58-10.93 16.47c0 0-10.64-17.77-16.94-17.31l12.31-14.16s2.13-2.32 2.23-3.7c.1-1.38 5.92-7.78 8.7-8.06 0 0 .46-3.79-.74-3.89-1.2-.1-2.22-3-2.22-3s-8.15-9.63-8.24-15.74c-.09-6.11 10.92-18.84 10.92-18.84z" fill="#999" fill-rule="nonzero"/><path d="M1103.8 550.83s-7.78 5.74-6.11 7.6c1.67 1.86 6.11-7.6 6.11-7.6zM1104.17 574.53s14.44-4.63 15.92 0h-15.92zM1014.75 820.46s-7.78 5.1-11.67 4.35a14.003 14.003 0 0 0-7.87 1.3 23.363 23.363 0 0 1-9.81 6.39c-6.3 2.13-15.09 1.29-20.09-.37-2.36-.79-2.55-1.81-1.41-3.06 5.43 1.08 17.58 3.23 20.85 1.67a86.72 86.72 0 0 0 10.37-6.48c3.3-2.401 8-1.11 9.07-1.11.79 0 6.94-2.54 10.41-4l.15 1.31zM1061.84 830.91c0 .31-.07.51-.07.51s-1.85 4.07-12.13 5.55c-10.28 1.48-10.27-3.42-10.27-3.42l.1-1.33c3.25 1.24 10.35 2.61 22.37-1.31zM1002.29 549.72s0 21.11-1.8 23.19c-1.8 2.08 1.8-23.19 1.8-23.19zM1085.74 556.53l2.69 7.54s1.06-7.4-2.69-7.54z" fill-opacity=".1" fill-rule="nonzero"/><g opacity=".1" fill-rule="nonzero"><path d="M1020.29 475.61c.68-1.73-1.1-3.44-1.33-5.3a3.414 3.414 0 0 0-.3 1.67c.12 1.41 1.16 2.72 1.43 4 .078-.117.145-.241.2-.37zM1051.01 495.55c-.66-2.92-.46-6-1.14-8.93-.68-2.93-2.76-6-5.6-6-1.22 0-2.65.44-3.53-.47-.54-.55-.64-1.42-1-2.1-2-3.28-8.2-1.61-10.73.07-3.78 2.51-9 7.78-13.84 6.58-.23.56-.45 1.13-.63 1.72 5 1.54 10.32-3.92 14.19-6.5 2.53-1.68 8.7-3.34 10.73-.06.4.67.51 1.54 1 2.1.88.91 2.31.44 3.53.46 2.84.05 4.92 3.06 5.6 6 .68 2.94.47 6.12 1.18 9.08a5 5 0 0 1 .24-1.95zM1064.93 492.08c-.5 1.47-1.82 2.82-3.25 2.52-1.43-.3-2.12-1.92-3.18-2.94a4.369 4.369 0 0 0-5-.7 5.068 5.068 0 0 0-2.46 4.49 4.831 4.831 0 0 1 2.18-2.68 4.36 4.36 0 0 1 5 .69c1.06 1 1.79 2.65 3.19 2.94 1.4.29 2.74-1.05 3.24-2.52.271-.864.443-1.757.51-2.66a6.527 6.527 0 0 1-.23.86zM1069.29 479.46c-1 2.74-2.93 5.11-3.56 8-.12.58-.2 1.18-.27 1.78.64-2.88 2.51-5.24 3.55-8 .464-1.233.75-2.526.85-3.84a14 14 0 0 1-.57 2.06z"/></g><circle cx="935.51" cy="546.26" r=".23" fill="#e6e8ec"/><path d="M1030.3 558.03a6.613 6.613 0 0 0-6.61-6.61H855.73a6.613 6.613 0 0 0-6.61 6.61v195a6.613 6.613 0 0 0 6.61 6.61h167.96a6.613 6.613 0 0 0 6.61-6.61v-195z" fill="#fff"/><path d="M1030.3 558.03a6.613 6.613 0 0 0-6.61-6.61H855.73a6.613 6.613 0 0 0-6.61 6.61v195a6.613 6.613 0 0 0 6.61 6.61h167.96a6.613 6.613 0 0 0 6.61-6.61v-195z" fill="#5a5773" fill-opacity=".1"/><path d="M1021.06 568.65a6.613 6.613 0 0 0-6.61-6.61H864.97a6.613 6.613 0 0 0-6.61 6.61v173.76a6.613 6.613 0 0 0 6.61 6.61h149.48a6.613 6.613 0 0 0 6.61-6.61V568.65z" fill="#fff"/><path d="M993.65 605.57a6.033 6.033 0 0 0-6.03-6.03h-99.56a6.033 6.033 0 0 0-6.03 6.03v26.46a6.033 6.033 0 0 0 6.03 6.03h99.56a6.033 6.033 0 0 0 6.03-6.03v-26.46zM886.13 652.15h103.43v7.86H886.13zM868.55 668.74h142.32v7.86H868.55zM868.55 686.2h142.32v7.86H868.55zM868.55 703.66h142.32v7.86H868.55z" fill="#00c6dc"/><path d="M426.61 489.2a6.613 6.613 0 0 0-6.61-6.61H6.61A6.613 6.613 0 0 0 0 489.2v195a6.613 6.613 0 0 0 6.61 6.61H420a6.613 6.613 0 0 0 6.61-6.61v-195z" fill="#fff"/><path d="M426.61 489.2a6.613 6.613 0 0 0-6.61-6.61H6.61A6.613 6.613 0 0 0 0 489.2v195a6.613 6.613 0 0 0 6.61 6.61H420a6.613 6.613 0 0 0 6.61-6.61v-195z" fill="#5a5773" fill-opacity=".1"/><path d="M404.84 499.82a6.613 6.613 0 0 0-6.61-6.61H28.37a6.613 6.613 0 0 0-6.61 6.61v173.76a6.613 6.613 0 0 0 6.61 6.61h369.86a6.613 6.613 0 0 0 6.61-6.61V499.82z" fill="#fff"/><path d="M340.32 536.75a6.033 6.033 0 0 0-6.03-6.03H83.54a6.033 6.033 0 0 0-6.03 6.03v26.46a6.033 6.033 0 0 0 6.03 6.03h250.75a6.033 6.033 0 0 0 6.03-6.03v-26.46zM87.15 583.32h243.53v7.86H87.15zM45.75 599.91h335.1v7.86H45.75zM45.75 617.37h335.1v7.86H45.75zM45.75 634.83h335.1v7.86H45.75z" fill="#00c6dc"/><path d="M104.27 840.64c1.19-4.34 2-8.16 2-8.16a17.002 17.002 0 0 1 2.22-8.27v-1.2l.34-8.81a29.375 29.375 0 0 0-2-4.7c-1.48-2.83.5-12.92.5-12.92s6.43-14.07 5.35-23.2c-1.08-9.13 13.62-39.83 13.62-39.83a39.467 39.467 0 0 0-.92-9 6.899 6.899 0 0 1-.1-1.87 1.765 1.765 0 0 1 0-.23v.07c.43-6 5.59-17 5.59-17l.19-21.4s-2.54-12.72 3-29.45c1.95-5.84 3.23-10.52 4.07-14.14.1-.41.19-.8.27-1.18-10.08-1.94-17.78-3.52-17.78-3.52s6.83-24.38 11-28.53c4.17-4.15 7.83-17.57 7.83-17.57s2.74-17.3-.4-22.5c-3.14-5.2-3.28-14-3.28-14s-7.42-5.83-8.28-8.32c-.86-2.49-2.23-8.1-2.12-11 .11-2.9 1.17-5.5.91-7.05-.26-1.55 2.51-7.29 1.34-10.11a7.753 7.753 0 0 1-.4-2.69c.026-.913 0 0 0-.08.083-2.422.401-4.83.95-7.19a20.402 20.402 0 0 1 7.7-3.74l.19-.66.5-1.71c.246-.153.5-.293.76-.42l.05-.63.16-2.49-.96-5.68c-2-9.86 11.12-10.81 11.12-10.81a6.87 6.87 0 0 1 3.81-3.1c2.66-.82-.12 14.71-1.39 15.66-1 .71-4 5.5-5.45 7.85l-.24.39c.211.201.404.418.58.65l-.63 3.37-.1.51a13.992 13.992 0 0 1 1.95 3.63c.467 1.3-2.49 2.52-2.12 5.46a17.59 17.59 0 0 1-1 6.73c.14-.15 1.89-1.9 3.55-1.4s6.28 2.09 6.28 2.09 3.47.75 3.12 1.51c-.35.76 2.23 4.24 2.23 4.24l9.73-8.53c.11-.27.21-.53.31-.8a22.382 22.382 0 0 0 1-3.87 20.95 20.95 0 0 1-3-1.07 6.54 6.54 0 0 1-2.54-1.76c-.9-1.16-1-2.7-1.35-4.11-.64-2.76-2.14-5.26-3.19-7.91a25.294 25.294 0 0 1-1.34-14 9.33 9.33 0 0 1 1.6-4c1.62-2.05 4.43-2.8 6.52-4.4 2.09-1.6 3.49-4.13 5.89-5.3 2.18-1.06 4.77-.82 7.16-.34a38.257 38.257 0 0 1 13.05 5.31c1.34.87 2.81 1.87 4.4 1.64a6.074 6.074 0 0 0 3.3-2.23.818.818 0 0 1 0-.14l.11-.11a16.501 16.501 0 0 1 1.18 7.08c0 .37 0 .75-.08 1.12v.39c-.01.11-.01.22 0 .33-.005.165.016.331.06.49.176.493.459.941.83 1.31.272.334.513.692.72 1.07 0-.13-.07-.26-.11-.39.566.898.865 1.939.86 3a2.932 2.932 0 0 1-.79 2.09 9.285 9.285 0 0 1-1.58 1.18 17.984 17.984 0 0 1-9.28 18.29c-.12.26-.24.53-.35.8a22.362 22.362 0 0 0-2.1 10.17c0 .25 0 .5.08.75s.23.27.33.41c.1.14 15.5.75 19.28-2.42 3.78-3.17 8.9 8.43 8.9 8.43s5.52 1.29 6.67.26c1.15-1.03 7.64.14 7.64.14a14.004 14.004 0 0 1 9.82-3.17 28.718 28.718 0 0 1 7.27-3.68l.18-.06a7.85 7.85 0 0 1 3.51-.31c1.178.164 7.87-6 10.22-9.31 2.35-3.31 13.38-15.44 13.38-15.5l.07-.6.19-1.82c.31.064.624.104.94.12l.24-.63a34.267 34.267 0 0 1 2.45-5.08c.955-1.623.09-2.31-.56-2.91-.65-.6.63-9 .63-9s7.49-15.8 13.18-3.57c0 0 11.34 8.21 1.22 16.87 0 0-4 1.74-4.57 3.21-.4 1-1.83 3.62-2.79 5.39l-.43.79.11.1-.2 1.5-.08.59c1.79 1.11 3 2.19 2.67 3a17.01 17.01 0 0 0-1.27 4.11c-.248 1.418-14.14 16.3-16.16 23.49 0 0-37.06 20.14-49 21.22l1.65 10.84c.196 2.926.242 5.86.14 8.79-.25 2.3.94 12.81.94 12.81s1.47 15.46 3.14 17.68c1.67 2.22 1 11.44 1 11.44.251 4.432.88 8.835 1.88 13.16 1.52 5.91 0 13.09 0 13.09s5.51 14.07-8.59 4.13c0 0-7.08-.71-15.24-1.3v.81c0 1.06-.05 2.2-.08 3.4-.2 7.93-.57 18.85-1.25 27.1-1.2 14.59-6.76 43.33-6.76 43.33l-.56 14.52c.238 1.376.325 2.775.26 4.17a27.003 27.003 0 0 1-4.47 14.39l-1.49 9.65s-2.85 6.28-3.05 10.09a4.53 4.53 0 0 0 .08.93c.073.493.097.992.07 1.49 0 4.4-3.08 14.82-3.08 14.82s-.57 10.61-2.18 11.16c-1.38.48 1.58 6.19 2.46 7.83.033-.098.056-.198.07-.3l.19.32c.294.872.426 1.79.39 2.71a3.877 3.877 0 0 1-1.91 3.66c-3.09 1.73-4.77 3.2-2.23 3.92.938.183 1.866.413 2.78.69l.15-.35a1.715 1.715 0 0 1 1 1.9 7.773 7.773 0 0 1-1.09 3.56 38.782 38.782 0 0 1-4.6 7.68l-1.22-.18c.165.469.387.915.66 1.33a5.084 5.084 0 0 0 1.74 1.67 5.563 5.563 0 0 0 2.14.82 6.172 6.172 0 0 1 4.42 2.37c1.5 2.11 2.39 4.94-.84 7.27l-11.51 3.48s-19.64 1.79-18.44-2.55c1.2-4.34 2-8.16 2-8.16a17.354 17.354 0 0 1 1.88-7.72c.222-.389.469-.763.74-1.12l-.69-.1s-1.14-9.75-3.02-11.64c-.42-.45-.51-.78-.4-1-.17-.53.33-.82 1-1 0 .12.09.25.13.38a9.67 9.67 0 0 1 1.9-.13c.636.019.83-5.05-1.16-7a1.902 1.902 0 0 1-.34-1.52 7.798 7.798 0 0 1 .29-2.06.8.8 0 0 0 .07.12c1.22-4.56 5-11.74 5-11.74s.33-4.61-.87-6.51c-1.2-1.9 1.13-25.06 1.13-25.06s-.05-11.24 1.58-16.41c1.63-5.17-1.31-11.45-1.31-11.45s0-.12.05-.33a.451.451 0 0 0 0-.09c-.003-.03.1-.69.26-1.76v.11c.44-3 1.25-8.31 1.79-10.79.77-3.51.63-20.46.63-20.46l-2.59-7.3-5.57 12.26-6 16.4s-2.81 3.4-3 7v.53c.025.37.025.74 0 1.11a9.924 9.924 0 0 1-1.88 5.85c-1.23 1.702-1.73 7.79-4 9.7-2.27 1.91-2.45 5.76-2.45 5.76s-3.14 11.28-4.49 13.23c-1.13 1.64-1.37 6.27-1.41 7.69v.41s-.53 4.06-.65 7.48v1.21a.215.215 0 0 1 0-.08c-.038.929.036 1.859.22 2.77s0 .11 0 .17v-.58c.475 2.342.66 4.733.55 7.12-.09 4.09-.9 8.91-3.49 11.66-4.48 4.76-7.15 4-7.15 4s1.83 6.23 4.32 7.56c.096.051.186.111.27.18 0-.12 0-.24.07-.35.535.647.774 1.489.66 2.32.08 2.71-1.8 7-3.5 9a4.999 4.999 0 0 1-2.19 1.18c.124.095.255.182.39.26.277.164.565.311.86.44.403.197.835.328 1.28.39a6.083 6.083 0 0 1 4.42 2.37c1.5 2.1 2.39 4.93-.84 7.26l-11.51 3.48s-19.7 1.74-18.49-2.6z" fill="url(#_Linear3)" fill-rule="nonzero"/><path d="M178.62 850.77l11.15-3.49c3.13-2.34 2.27-5.17.82-7.28a5.842 5.842 0 0 0-4.27-2.35 5.22 5.22 0 0 1-2.08-.83 5.002 5.002 0 0 1-1.67-1.66 8.202 8.202 0 0 1-1.09-4.3c.039-1.506-11.94-4-15.38-.59a9.006 9.006 0 0 0-1.53 2.09 17.995 17.995 0 0 0-1.84 7.72c-.031 2.678-.76 3.81-1.93 8.16s17.82 2.53 17.82 2.53zM125.01 843.28l11.15-3.49c3.13-2.34 2.27-5.17.82-7.27a5.841 5.841 0 0 0-4.28-2.36 3.932 3.932 0 0 1-1.24-.38 7.912 7.912 0 0 1-.83-.45c-3-1.81-2.77-6-2.77-6s-11.94-4-15.38-.59a8.84 8.84 0 0 0-1.22 1.52 17.446 17.446 0 0 0-2.16 8.29c-.02 2.9-.77 3.82-1.93 8.16s17.84 2.57 17.84 2.57z" fill="#333" fill-rule="nonzero"/><path d="M166.09 830.27a8.979 8.979 0 0 0-1.52 2.09l18 2.79a8.202 8.202 0 0 1-1.09-4.3c.039-1.506-11.91-3.99-15.39-.58zM111.26 824.3l-.13 3.39c2.64 4.75 16.29 4.26 20.33 2.09a7.912 7.912 0 0 1-.83-.45c-3-1.81-2.77-6-2.77-6s-11.94-4-15.38-.59a8.848 8.848 0 0 0-1.22 1.56z" fill-opacity=".1" fill-rule="nonzero"/><path d="M109.67 809.62a31.06 31.06 0 0 1 2 4.7l-.49 12.14c2.88 5.2 18.94 4.12 21.2 1.44 2.26-2.68 4.84-9.83 2.43-11.15-2.41-1.32-4.18-7.56-4.18-7.56s2.59.72 6.94-4c4.35-4.72 3.53-15.73 2.85-18.37-.68-2.64.45-11.38.45-11.38s.08-6.16 1.39-8.11c1.31-1.95 4.36-13.23 4.36-13.23s.14-3.85 2.37-5.76c2.23-1.91 3.92-9.71 3.92-9.71a10.067 10.067 0 0 0 1.79-6.55c-.31-3.86 2.92-7.9 2.92-7.9l5.87-16.4 5.4-12.27 2.49 7.33s.12 16.95-.63 20.46c-.75 3.51-2 12.86-2 12.86s2.84 6.27 1.26 11.45c-1.58 5.18-1.56 16.41-1.56 16.41s-2.28 23.17-1.12 25.06c1.16 1.89.83 6.5.83 6.5s-6.82 13.29-4.9 15.22c1.92 1.93 1.12 7 1.12 7s-4.3-.17-2.53 1.75 2.72 11.59 2.72 11.59l18.51 2.87a39.166 39.166 0 0 0 4.46-7.69c2.68-5.59-.26-5.09-2.71-5.8s-.83-2.19 2.16-3.92 1.46-5.95 1.46-5.95-4.17-7.71-2.6-8.26c1.57-.55 2.12-11.16 2.12-11.16s3.56-12.5 2.92-15.91c-.64-3.41 2.91-11.44 2.91-11.44l1.44-9.64a26.636 26.636 0 0 0 4.09-18.17l.58-14.92s5.44-28.69 6.66-43.33c.76-9.34 1.14-22.11 1.31-30.08.1-4.48.14-7.44.14-7.44l-66.17-9.48a54.564 54.564 0 0 1-1.59 9.82c-.81 3.63-2.06 8.31-4 14.15-5.42 16.73-3 29.45-3 29.45l-.21 21.4s-6.4 14.08-5.35 19.05a40.68 40.68 0 0 1 .88 9c-.042 3.023-14.24 30.68-13.2 39.77 1.04 9.09-5.21 23.21-5.21 23.21s-1.93 10.12-.5 12.95z" fill="#a1b0c5" fill-rule="nonzero"/><path d="M150.74 730.96l-20.12-3.5s11.01 12.16 20.12 3.5z" fill-opacity=".05" fill-rule="nonzero"/><path d="M134.3 707.85s-1 7.12 3.31 10c-.04-.02-7.79-1.55-3.31-10zM136.42 685.13s16.37 14.57 22.56 13.66c6.19-.91-22.56-13.66-22.56-13.66zM175.57 738.46s12.73 3.42 12.92 8.58c.19 5.16-12.92-8.58-12.92-8.58z" fill-opacity=".1" fill-rule="nonzero"/><path d="M170.26 802.46s18 4.08 12.78 6.19c-5.22 2.11-13.77 3.63-13.77 3.63s-5.86.1.99-9.82z" fill-opacity=".05" fill-rule="nonzero"/><g opacity=".05" fill-rule="nonzero"><path d="M186.57 812.46a3.601 3.601 0 0 0 1.76-2.56l.17.33s1.54 4.21-1.46 6c-.34.19-.66.39-1 .58-.53-.12-1.11-.22-1.66-.38-2.44-.75-.81-2.23 2.19-3.97zM163.23 810.34c-.48-.48-.41-1.66 0-3.17a8.587 8.587 0 0 1 .86 4.5 3.494 3.494 0 0 0-.86-1.33zM168.97 733.94a20.918 20.918 0 0 1 1 5.71 21.779 21.779 0 0 0-1.26-3.94c-.544-1.27.11-.69.26-1.77zM127.74 724.27a7.306 7.306 0 0 1-.11-1.69c.19 1.16.31 2.23.38 3.17-.08-.48-.17-.97-.27-1.48zM167.3 788.63a10.173 10.173 0 0 1-.32-3.43c.515 1.387.76 2.861.72 4.34a4.216 4.216 0 0 0-.4-.91zM162.38 817.46a60.35 60.35 0 0 1 1.75 9.53l18.51 2.87a38.771 38.771 0 0 0 4.47-7.69c.24-.49.42-.93.58-1.33 1.09.55 1.49 1.73-.11 5.05a39.19 39.19 0 0 1-4.46 7.68l-18.55-2.85s-1-9.74-2.79-11.65c-.83-.95-.21-1.38.6-1.61zM188.01 790.81s-.56 10.61-2.12 11.16c-.71-1.79-1.17-3.47-.47-3.72 1.56-.56 2.13-11.16 2.13-11.16s3.56-12.49 2.92-15.91c-.64-3.42 2.9-11.43 2.9-11.43l1.45-9.65a26.636 26.636 0 0 0 4.09-18.17l.57-14.92s5.42-28.74 6.6-43.33c.75-9.34 1.13-22.11 1.31-30.08 0-1.44.06-2.72.08-3.8l.53.08s0 3-.14 7.43c-.17 8-.55 20.75-1.31 30.09-1.18 14.58-6.59 43.33-6.59 43.33l-.58 14.91a26.666 26.666 0 0 1-4.08 18.17l-1.46 9.65s-3.55 8-2.91 11.44c.64 3.44-2.92 15.91-2.92 15.91zM131.92 823.77a17.995 17.995 0 0 0 3.22-7.19c1.83 1.78-.6 8.35-2.75 10.9-2.15 2.55-18.32 3.76-21.2-1.43l.11-2.93c4 4.28 18.48 3.19 20.62.65zM109.21 805.46a31.06 31.06 0 0 1 2 4.7l-.09 2.15a33.518 33.518 0 0 0-1.42-3.14 9.257 9.257 0 0 1-.52-3.83l.03.12zM131.57 808.78a30.042 30.042 0 0 1-1.38-3.71c-.378-1.266 2.59.71 6.93-4.05 3.16-3.47 3.59-10.22 3.33-14.66.68 2.65 1.49 13.61-2.85 18.37-2.86 3.12-4.95 3.89-6.03 4.05zM140.88 774.98a82.115 82.115 0 0 0-.66 9.11c-.06-.485-.146-.965-.26-1.44-.67-2.65.44-11.38.44-11.38s.09-6.16 1.39-8.11c1.3-1.95 4.36-13.23 4.36-13.23s.15-3.84 2.38-5.76 3.92-9.71 3.92-9.71a10.124 10.124 0 0 0 1.79-6.55c-.31-3.86 2.92-7.9 2.92-7.9l5.87-16.4 5.4-12.27 2.49 7.34v2.34l-2-6-5.4 12.26-5.87 16.41s-3.23 4-2.92 7.9a10.067 10.067 0 0 1-1.79 6.55c-1.337 1.909-1.69 7.79-3.92 9.7-2.23 1.91-2.37 5.76-2.37 5.76s-3.06 11.28-4.36 13.24c-1.3 1.96-1.41 8.14-1.41 8.14z"/></g><path d="M138.85 491.56l.94 5.66-.16 2.5-.12 1.84 6.39.91.77-1.3c1.42-2.35 4.36-7.14 5.29-7.86 1.22-.95 3.94-16.48 1.36-15.66a6.751 6.751 0 0 0-3.7 3.1c-.809 1.454-12.66.96-10.77 10.81z" fill="#ffcdd3" fill-rule="nonzero"/><path d="M139.51 501.56l6.39.91.77-1.3a5.688 5.688 0 0 0-7-1.44l-.16 1.83z" fill-opacity=".1" fill-rule="nonzero"/><path d="M137.77 504.54l8.39 2.29.22-1.26.61-3.37a5.827 5.827 0 0 0-8.15-1.43l-.48 1.71-.59 2.06z" fill="#dce6f2" fill-rule="nonzero"/><path d="M275.31 497.46l8.84 5.2s.37-.71.89-1.68c.93-1.77 2.31-4.43 2.7-5.39.59-1.47 4.43-3.22 4.43-3.22 9.81-8.67-1.16-16.86-1.16-16.86-5.5-12.23-12.76 3.58-12.76 3.58s-1.25 8.43-.62 9c.63.57.54 2.91.54 2.91a33.993 33.993 0 0 0-2.86 6.46z" fill="#ffcdd3" fill-rule="nonzero"/><path d="M275.31 497.46l8.84 5.2s.37-.71.89-1.68c-1.24-1.11-5.62-5-7.11-4.84-.712.071-1.428.071-2.14 0-.31.77-.48 1.32-.48 1.32z" fill-opacity=".1" fill-rule="nonzero"/><path d="M274.28 500.13l10 5.39.28-2.18.2-1.5s-5.68-5.26-7.42-5.14a9.452 9.452 0 0 1-2.66-.11l-.18 1.82-.22 1.72z" fill="#dce6f2" fill-rule="nonzero"/><path d="M162.02 529.8s44.07 6.7 35.9 3.7c-5.69-2.1-7.84-5.85-8.16-9.93a23.212 23.212 0 0 1 2-10.18 44.614 44.614 0 0 1 4.27-7.84c1.682-2.464-33.12-19.91-27-2.73a27.121 27.121 0 0 1 1.61 8.09 22.81 22.81 0 0 1-1.18 8.08 24.205 24.205 0 0 1-7.44 10.81z" fill="#ffcdd3" fill-rule="nonzero"/><path d="M169.07 502.82a27.121 27.121 0 0 1 1.61 8.09c3.08 2.79 6.58 2.75 11.07 2.92 3.45.14 7.23 1.12 10-.44a44.614 44.614 0 0 1 4.27-7.84c1.682-2.464-33.07-19.91-26.95-2.73z" fill-opacity=".1" fill-rule="nonzero"/><circle cx="183.01" cy="496.73" r="18.31" fill="#ffcdd3"/><path d="M162.02 529.8s44.07 6.7 35.9 3.7c-5.69-2.1-7.84-5.85-8.16-9.93-2.11-2.47-6.47-4.36-9.28-5.39a13.336 13.336 0 0 0-8-.44 11.013 11.013 0 0 0-3 1.25 24.197 24.197 0 0 1-7.46 10.81zM137.77 504.54l8.39 2.29.22-1.26a7.485 7.485 0 0 0-8-3.09l-.61 2.06zM274.28 500.13l10 5.39.28-2.18a75.73 75.73 0 0 0-10.1-4.88l-.18 1.67zM140.22 640.64c17 3.37 41.3 7.83 45.21 6.8 3.25-.85 13.5-.35 22.41.3.1-4.48.14-7.44.14-7.44l-66.17-9.48a54.564 54.564 0 0 1-1.59 9.82z" fill-opacity=".1" fill-rule="nonzero"/><path d="M123.29 635.96s56.06 11.86 62.19 10.25c6.13-1.61 37.15 1.58 37.15 1.58 13.63 9.92 8.32-4.14 8.32-4.14s1.51-7.18 0-13.09a79.969 79.969 0 0 1-1.81-13.16c-.237-4.429.67-9.22-.94-11.43-1.61-2.21-3-17.68-3-17.68s-1.13-10.51-.89-12.81c.24-2.3-.12-8.79-.12-8.79l-1.59-10.84c11.59-1.09 47.48-21.27 47.48-21.27 2-7.16 15.69-23.58 15.69-23.58a17.782 17.782 0 0 1 1.24-4.11c1-2.42-12.63-7.87-12.63-7.87s-10.81 12.21-13.05 15.51c-2.24 3.3-9.91 9.32-9.91 9.32a7.51 7.51 0 0 0-3.4.31h-.18a27.494 27.494 0 0 0-7 3.69 13.404 13.404 0 0 0-9.52 3.17c-2.642 2.249-6.27-1.16-7.38-.13-1.11 1.03-6.46-.25-6.46-.25s-5-11.58-8.61-8.41c-3.61 3.17-18.67 2.44-18.67 2.44-1.89-2.74-6.69-4.83-9.69-5.93a13.25 13.25 0 0 0-8-.44c-1.149.283-2.241.76-3.23 1.41l-9.44 8.56s-2.49-3.48-2.15-4.24c.34-.76-3-1.5-3-1.5s-4.41-1.56-6.08-2.08-3.3 1.24-3.44 1.4a17.788 17.788 0 0 0 1-6.73c-.35-2.94 2.05-5.47 2.05-5.47-4.87-13.43-17.44-2.82-17.44-2.82s-1.67 7.17-.54 10-1.56 8.56-1.32 10.11c.24 1.55-.77 4.13-.88 7.05-.11 2.92 1.21 8.52 2 11 .79 2.48 8 8.32 8 8.32s.13 8.78 3.16 14c3.03 5.22.37 22.5.37 22.5s-3.6 13.41-7.61 17.57-10.67 28.58-10.67 28.58z" fill="#81a1ce" fill-rule="nonzero"/><path d="M209.45 537.94s1.89-5 3.44-5.41a35.441 35.441 0 0 0 4.54-1.83l-.92-1.93s-5.84 1.37-6.82 3c-.98 1.63-.24 6.17-.24 6.17zM240.79 527.91c.25 1.55 13.88 3.46 13.88 3.46l-6.65-7.21h-.17a27.45 27.45 0 0 0-7.06 3.75z" fill-opacity=".1" fill-rule="nonzero"/><circle cx="281.2" cy="508.32" r="1.23" fill="#0d2c56"/><circle cx="279.53" cy="510.72" r="1.23" fill="#0d2c56"/><circle cx="277.9" cy="512.93" r="1.23" fill="#0d2c56"/><circle cx="276.2" cy="515.33" r="1.23" fill="#0d2c56"/><circle cx="131.25" cy="509.62" r="1" fill="#0d2c56"/><circle cx="131.01" cy="511.88" r="1" fill="#0d2c56"/><circle cx="130.78" cy="514.14" r="1" fill="#0d2c56"/><path d="M207.77 579.61c.15-.17-36.2 42.27-62.14 15.94 0 0 42.3 7.4 62.14-15.94zM226.81 603.14s-20.77-.23-23.17 5.65l-.24 6.21a4.005 4.005 0 0 0 3.86.15c2.14-1.05 14.92-6.94 19.23-3.7l.32-8.31z" fill-opacity=".1" fill-rule="nonzero"/><path d="M226.42 603.12s-19.85-.22-22.15 5.39l-.23 5.92a3.802 3.802 0 0 0 3.69.14c2-1 14.27-6.61 18.39-3.53l.3-7.92z" fill="#7491ba" fill-rule="nonzero"/><path d="M217.22 557.66a67.395 67.395 0 0 1-8.57 13.49 54.081 54.081 0 0 1-13.08 11.68c-4.966 3.156 21.19-22.37 21.65-25.17zM224.93 533.82s-4 14.81-13.15 19.54l13.15-19.54zM230.18 535.53c.1-.27 2.62 11.94-12.21 18.07 0 0 6.27-1.87 12.21-18.07zM139.99 522.03c.23 0-7.37 4.45-9.47 6.56.05 0 5.1-7.04 9.47-6.56z" fill-opacity=".1" fill-rule="nonzero"/><path d="M187.32 513.51a3.932 3.932 0 0 1-1.53 2.42 3.767 3.767 0 0 1-1.74.31c-5.59.14-11.41.16-16.48-2.19a6.22 6.22 0 0 1-2.45-1.76c-.88-1.16-1-2.69-1.31-4.11-.62-2.76-2.07-5.25-3.08-7.9a26 26 0 0 1-1.27-14 9.364 9.364 0 0 1 1.55-4c1.56-2.05 4.29-2.8 6.31-4.41 2.02-1.61 3.38-4.13 5.72-5.31 2.1-1.06 4.61-.83 6.92-.34 4.534.95 8.845 2.76 12.7 5.33 1.29.87 2.71 1.86 4.25 1.63a5.918 5.918 0 0 0 3.26-2.3 17.003 17.003 0 0 1 1.06 8c-.07.397-.07.803 0 1.2.171.488.444.935.8 1.31 1.31 1.65 2.08 4.21.66 5.77-.62.68-1.55 1-2.15 1.73-1.08 1.24-.81 3.1-.85 4.75a2.502 2.502 0 0 1-.46 1.61 2.392 2.392 0 0 1-2.28.45 6.209 6.209 0 0 0-2.4-.32 3.997 3.997 0 0 0-2.15 1.52c-2.71 3.14-3.83 6.71-5.08 10.61z" fill="#2d293d" fill-rule="nonzero"/><g opacity=".1" fill-rule="nonzero"><path d="M164.57 510.85a6.143 6.143 0 0 0 2.45 1.77c5.07 2.35 10.89 2.32 16.48 2.19a3.644 3.644 0 0 0 1.74-.32 3.884 3.884 0 0 0 1.53-2.41c1.23-3.91 2.37-7.47 5.08-10.65a4.003 4.003 0 0 1 2.15-1.53 6.408 6.408 0 0 1 2.4.32c.785.26 1.652.089 2.28-.45.335-.464.497-1.03.46-1.6 0-1.65-.23-3.51.85-4.76.6-.69 1.53-1 2.15-1.72a3.625 3.625 0 0 0 .49-3.66c.92 1.59 1.27 3.6.07 4.91-.62.68-1.54 1-2.15 1.73-1.08 1.24-.8 3.1-.84 4.75a2.45 2.45 0 0 1-.47 1.61 2.384 2.384 0 0 1-2.28.45 6.159 6.159 0 0 0-2.39-.32c-.873.25-1.635.79-2.16 1.53-2.7 3.17-3.84 6.74-5.08 10.64a2.902 2.902 0 0 1-3.26 2.74c-5.59.13-11.41.15-16.49-2.2a6.254 6.254 0 0 1-2.45-1.76 4.812 4.812 0 0 1-.73-1.51c.05.088.107.171.17.25zM201.19 485.56a2.473 2.473 0 0 1-.52-1 3.455 3.455 0 0 1 0-1.2 17.036 17.036 0 0 0-.6-6.66l.1-.11a16.866 16.866 0 0 1 1.07 8 5.425 5.425 0 0 0-.05.97z"/></g><path d="M190.15 524.73s-23 2.15-24.9-1.37M146.08 513.56s-12.71-.47-15.68 4.18" fill-opacity=".1" fill-rule="nonzero"/><defs><linearGradient id="_Linear1" x2="1" gradientUnits="userSpaceOnUse" gradientTransform="rotate(-90 619.95 68.49) scale(538.33)"><stop offset="0" stop-color="gray" stop-opacity=".247"/><stop offset=".54" stop-color="gray" stop-opacity=".118"/><stop offset="1" stop-color="gray" stop-opacity=".098"/></linearGradient><linearGradient id="_Linear2" x2="1" gradientUnits="userSpaceOnUse" gradientTransform="rotate(-90 934.555 -96.475) scale(387.68)"><stop offset="0" stop-color="gray" stop-opacity=".247"/><stop offset=".54" stop-color="gray" stop-opacity=".118"/><stop offset="1" stop-color="gray" stop-opacity=".098"/></linearGradient><linearGradient id="_Linear3" x2="1" gradientUnits="userSpaceOnUse" gradientTransform="rotate(-87.709 539.338 325.606) scale(384.8475)"><stop offset="0" stop-color="gray" stop-opacity=".247"/><stop offset=".54" stop-color="gray" stop-opacity=".118"/><stop offset="1" stop-color="gray" stop-opacity=".098"/></linearGradient></defs></svg>